# xmcd CD database file
# 
# Track frame offsets:
# 150
# 16590
# 31850
# 51212
# 63110
# 75695
# 90690
# 113020
# 128375
# 
# Disc length: 1890 seconds
#
# 
# Revision: 0
# Processed by: cddbd v1.4b41PL1 Copyright (c) Steve Scherf et al.
# Submitted via: SuperSonic v3.0
# 
DISCID=5a076009
DTITLE=Various, Country - COUNTRY LINE DANCING
DYEAR=1900
DGENRE=
TTITLE0=WESTERN GIRLS
TTITLE1=JEALOUS BONES
TTITLE2=LITTLE LONG HAIRED OUTLAW
TTITLE3=BABY I'M BURNIN'
TTITLE4=HOLDIN' A GOOD HAND
TTITLE5=DARLENE
TTITLE6=PINK CADILLAC
TTITLE7=YOUR ONE AND ONLY
TTITLE8=WORK SONG
EXTD=
EXTT0=
EXTT1=
EXTT2=
EXTT3=
EXTT4=
EXTT5=
EXTT6=
EXTT7=
EXTT8=
PLAYORDER=
